<?xml version="1.0" standalone="no"?>
<!DOCTYPE svg PUBLIC "-//W3C//DTD SVG 20010904//EN"
 "http://www.w3.org/TR/2001/REC-SVG-20010904/DTD/svg10.dtd">
<svg version="1.0" xmlns="http://www.w3.org/2000/svg"
 width="700.000000pt" height="700.000000pt" viewBox="0 0 700.000000 700.000000"
 preserveAspectRatio="xMidYMid meet">
<metadata>
Created by potrace 1.14, written by Peter Selinger 2001-2017
</metadata>
<g transform="translate(0.000000,700.000000) scale(0.100000,-0.100000)"
fill="#000000" stroke="none">
<path d="M2357 6124 c-1 -1 -72 -5 -157 -8 -85 -4 -166 -8 -180 -10 -14 -3
-52 -7 -85 -11 -263 -28 -418 -107 -503 -258 -29 -51 -57 -123 -66 -169 -2
-13 -7 -34 -10 -48 -8 -34 -15 -85 -21 -150 -3 -30 -8 -77 -11 -105 -11 -96
-12 -3662 -1 -3635 52 130 80 166 181 231 99 65 227 105 366 115 47 4 915 7
1930 8 l1845 1 -1 1505 c0 1360 -4 1722 -19 1860 -20 180 -44 275 -98 390 -24
50 -130 146 -197 178 -71 33 -198 66 -300 77 -36 4 -78 9 -95 11 -106 13 -410
17 -1428 18 -632 1 -1149 0 -1150 0z m2296 -1095 c52 -27 82 -58 96 -101 34
-105 -2 -187 -104 -237 -37 -18 -81 -18 -1158 -19 -616 0 -1134 4 -1150 9 -90
26 -154 117 -142 202 11 74 58 129 130 155 20 7 388 11 1158 11 l1128 1 42
-21z m-821 -881 c54 -24 75 -44 99 -90 34 -66 20 -158 -32 -208 -13 -12 -43
-31 -67 -42 -41 -19 -71 -19 -761 -19 -785 0 -756 -2 -819 58 -77 73 -78 184
-2 260 60 61 45 60 827 60 681 0 713 0 755 -19z"/>
<path d="M1987 1914 c-1 -1 -53 -4 -116 -8 -122 -7 -157 -17 -253 -79 -77 -49
-143 -121 -179 -193 -75 -152 -34 -422 87 -563 21 -24 59 -61 86 -81 79 -63
169 -89 358 -105 186 -15 389 -17 1450 -17 1297 -1 1436 2 1674 38 149 22 256
66 332 136 90 83 132 195 160 423 2 17 6 125 10 241 l6 210 -1074 0 -1074 0
-1 -303 c0 -166 -3 -313 -7 -326 -13 -52 -58 -39 -371 113 -71 34 -141 63
-155 62 -14 0 -122 -44 -240 -99 -118 -55 -227 -102 -242 -105 -51 -9 -53 -1
-58 341 l-5 316 -193 0 c-107 0 -194 -1 -195 -1z"/>
</g>
</svg>
